<svg width="63" height="50" viewBox="0 0 63 50" fill="none" xmlns="http://www.w3.org/2000/svg">
<path d="M0.635859 47V38.9H2.42586V42.18H3.67586V38.9H5.47586V47H3.67586V43.46H2.42586V47H0.635859ZM8.50938 47.1C8.08938 47.1 7.72938 47.0267 7.42937 46.88C7.12938 46.7267 6.89938 46.5067 6.73938 46.22C6.57938 45.9267 6.49938 45.5767 6.49938 45.17V43.05C6.49938 42.6367 6.57938 42.2867 6.73938 42C6.89938 41.7133 7.12938 41.4967 7.42937 41.35C7.73604 41.1967 8.09604 41.12 8.50938 41.12C8.93604 41.12 9.28938 41.1933 9.56938 41.34C9.85604 41.4867 10.0694 41.7033 10.2094 41.99C10.356 42.2767 10.4294 42.63 10.4294 43.05V44.21H8.10938V45.32C8.10938 45.4667 8.12604 45.5867 8.15938 45.68C8.19271 45.7733 8.23938 45.84 8.29938 45.88C8.35938 45.92 8.42938 45.94 8.50938 45.94C8.58938 45.94 8.65938 45.9233 8.71938 45.89C8.78604 45.85 8.83604 45.79 8.86938 45.71C8.90938 45.63 8.92938 45.52 8.92938 45.38V44.77H10.4294V45.33C10.4294 45.9167 10.2594 46.36 9.91938 46.66C9.57938 46.9533 9.10938 47.1 8.50938 47.1ZM8.10938 43.45H8.92938V42.87C8.92938 42.7167 8.90938 42.5967 8.86938 42.51C8.83604 42.4233 8.78604 42.3633 8.71938 42.33C8.65938 42.2967 8.58604 42.28 8.49938 42.28C8.41938 42.28 8.34938 42.3 8.28938 42.34C8.23604 42.38 8.19271 42.45 8.15938 42.55C8.12604 42.6433 8.10938 42.78 8.10938 42.96V43.45ZM11.1266 48.57V46.01C11.3466 45.91 11.5366 45.78 11.6966 45.62C11.8566 45.4533 11.9933 45.2533 12.1066 45.02C12.22 44.78 12.31 44.5033 12.3766 44.19C12.4433 43.87 12.49 43.5067 12.5166 43.1L12.6866 41.22H15.8666V46H16.7066V48.57H15.5366L15.4266 47H12.4066L12.3166 48.57H11.1266ZM12.8866 46H14.3766V42.19H13.8966L13.7766 43.49C13.7566 43.8567 13.72 44.1767 13.6666 44.45C13.6133 44.7167 13.5466 44.95 13.4666 45.15C13.3933 45.3433 13.3066 45.51 13.2066 45.65C13.1066 45.7833 13 45.9 12.8866 46ZM17.3909 47V41.22H19.4409C20.0209 41.22 20.4575 41.2833 20.7509 41.41C21.0442 41.53 21.2409 41.6967 21.3409 41.91C21.4409 42.1233 21.4909 42.3733 21.4909 42.66C21.4909 43.04 21.4075 43.32 21.2409 43.5C21.0809 43.6733 20.8675 43.7967 20.6009 43.87C20.8809 43.9367 21.0942 44.0367 21.2409 44.17C21.3875 44.3033 21.4875 44.4667 21.5409 44.66C21.6009 44.8533 21.6309 45.0767 21.6309 45.33C21.6309 45.7033 21.5609 46.0167 21.4209 46.27C21.2809 46.5167 21.0442 46.7 20.7109 46.82C20.3775 46.94 19.9242 47 19.3509 47H17.3909ZM19.0109 46.1H19.2809C19.4275 46.1 19.5575 46.0867 19.6709 46.06C19.7842 46.0333 19.8742 45.9633 19.9409 45.85C20.0142 45.73 20.0509 45.54 20.0509 45.28C20.0509 44.9867 20.0175 44.7767 19.9509 44.65C19.8909 44.5233 19.8042 44.4467 19.6909 44.42C19.5775 44.3933 19.4442 44.38 19.2909 44.38H19.0109V46.1ZM19.0109 43.5H19.4209C19.6142 43.5 19.7475 43.44 19.8209 43.32C19.8942 43.1933 19.9309 43.02 19.9309 42.8C19.9309 42.5867 19.8909 42.41 19.8109 42.27C19.7375 42.13 19.5675 42.06 19.3009 42.06H19.0109V43.5ZM22.4397 47V41.22H23.7297V44.31L25.2397 41.22H26.5097V47H25.1897V43.94L23.7197 47H22.4397ZM27.0778 47L28.2278 44.09L27.1478 41.22H28.5578L29.4778 43.96H29.5978V41.22H30.9578V43.96H31.0678L32.0478 41.22H33.4778L32.3278 44.09L33.5378 47H32.1878L31.0678 44.21H30.9578V47H29.5978V44.21H29.4778L28.4278 47H27.0778ZM34.1194 47V41.22H35.4094V44.31L36.9194 41.22H38.1894V47H36.8694V43.94L35.3994 47H34.1194ZM39.1875 47L39.2075 41.22H40.4075L41.5875 43.99L42.7775 41.22H43.9775L43.9975 47H42.7275V43.96L41.8375 46.1H41.3575L40.4575 43.95V47H39.1875ZM46.9178 47.1C46.5045 47.1 46.1445 47.03 45.8378 46.89C45.5378 46.75 45.3045 46.54 45.1378 46.26C44.9778 45.98 44.8978 45.63 44.8978 45.21V43.01C44.8978 42.59 44.9778 42.24 45.1378 41.96C45.3045 41.68 45.5378 41.47 45.8378 41.33C46.1445 41.19 46.5045 41.12 46.9178 41.12C47.3311 41.12 47.6878 41.19 47.9878 41.33C48.2945 41.47 48.5311 41.68 48.6978 41.96C48.8645 42.24 48.9478 42.59 48.9478 43.01V45.21C48.9478 45.63 48.8645 45.98 48.6978 46.26C48.5311 46.54 48.2945 46.75 47.9878 46.89C47.6878 47.03 47.3311 47.1 46.9178 47.1ZM46.9278 46.02C47.0345 46.02 47.1178 45.9933 47.1778 45.94C47.2378 45.88 47.2778 45.8 47.2978 45.7C47.3245 45.5933 47.3378 45.4667 47.3378 45.32V42.9C47.3378 42.7533 47.3245 42.63 47.2978 42.53C47.2778 42.4233 47.2378 42.3433 47.1778 42.29C47.1178 42.23 47.0345 42.2 46.9278 42.2C46.8211 42.2 46.7378 42.23 46.6778 42.29C46.6178 42.3433 46.5745 42.4233 46.5478 42.53C46.5211 42.63 46.5078 42.7533 46.5078 42.9V45.32C46.5078 45.4667 46.5211 45.5933 46.5478 45.7C46.5745 45.8 46.6178 45.88 46.6778 45.94C46.7378 45.9933 46.8211 46.02 46.9278 46.02ZM51.7318 47.1C51.3118 47.1 50.9518 47.0233 50.6518 46.87C50.3585 46.7167 50.1318 46.4967 49.9718 46.21C49.8118 45.9233 49.7318 45.5767 49.7318 45.17V43.05C49.7318 42.6367 49.8118 42.2867 49.9718 42C50.1318 41.7133 50.3585 41.4967 50.6518 41.35C50.9518 41.1967 51.3118 41.12 51.7318 41.12C52.1451 41.12 52.4951 41.1833 52.7818 41.31C53.0751 41.4367 53.2985 41.63 53.4518 41.89C53.6051 42.1433 53.6818 42.4667 53.6818 42.86V43.47H52.1118V42.81C52.1118 42.6567 52.0951 42.54 52.0618 42.46C52.0351 42.3733 51.9918 42.3133 51.9318 42.28C51.8785 42.2467 51.8118 42.23 51.7318 42.23C51.6518 42.23 51.5851 42.2533 51.5318 42.3C51.4785 42.34 51.4385 42.41 51.4118 42.51C51.3851 42.6033 51.3718 42.7367 51.3718 42.91V45.31C51.3718 45.57 51.4018 45.7467 51.4618 45.84C51.5285 45.9333 51.6218 45.98 51.7418 45.98C51.8285 45.98 51.8985 45.9633 51.9518 45.93C52.0051 45.89 52.0451 45.83 52.0718 45.75C52.0985 45.6633 52.1118 45.55 52.1118 45.41V44.64H53.6818V45.34C53.6818 45.7267 53.6018 46.0533 53.4418 46.32C53.2885 46.58 53.0651 46.7767 52.7718 46.91C52.4851 47.0367 52.1385 47.1 51.7318 47.1ZM55.2295 47V42.32H54.1795V41.22H57.8995V42.32H56.8495V47H55.2295ZM58.5823 47V41.22H60.2123V43.54C60.2189 43.54 60.2223 43.54 60.2223 43.54C60.2289 43.54 60.2356 43.54 60.2423 43.54C60.2489 43.54 60.2556 43.54 60.2623 43.54C60.6623 43.54 61.0156 43.5667 61.3223 43.62C61.6289 43.6733 61.8823 43.7667 62.0823 43.9C62.2889 44.0267 62.4456 44.2 62.5523 44.42C62.6589 44.6333 62.7123 44.9067 62.7123 45.24C62.7123 45.5533 62.6656 45.8233 62.5723 46.05C62.4856 46.27 62.3423 46.45 62.1423 46.59C61.9489 46.73 61.6956 46.8333 61.3823 46.9C61.0756 46.9667 60.7056 47 60.2723 47H58.5823ZM60.2123 46.07H60.2423C60.4889 46.07 60.6823 46.0467 60.8223 46C60.9689 45.9467 61.0723 45.8633 61.1323 45.75C61.1989 45.63 61.2323 45.4733 61.2323 45.28C61.2323 45.0733 61.1989 44.9167 61.1323 44.81C61.0723 44.6967 60.9689 44.6167 60.8223 44.57C60.6823 44.5233 60.4956 44.5 60.2623 44.5C60.2556 44.5 60.2456 44.5 60.2323 44.5C60.2256 44.5 60.2189 44.5 60.2123 44.5V46.07Z" fill="white"/>
<path d="M32 0L12 15H17V35H27V25H37V35H47V14.85L52 15L32 0Z" fill="white"/>
</svg>
